# xmcd
#
# Track frame offsets:
#	150
#	12265
#	24032
#	34761
#	46342
#	59842
#	72723
#	81877
#	93374
#	110162
#	124150
#
# Disc length: 1790 seconds
#
# Revision: 3
# Processed by: cddbd v1.5.2PL0 Copyright (c) Steve Scherf et al.
# Submitted via: audiograbber 1.83.01
#
DISCID=9506fc0b
DTITLE=Wilson Pickett - The Sound Of Wilson Pickett
DYEAR=1967
DGENRE=Soul Oldies
TTITLE0=Soul Dance Number Three
TTITLE1=Funky Broadway
TTITLE2=I Need A Lot Of Loving Every Day
TTITLE3=I Found A Love, Part I
TTITLE4=I Found A Love, Part II
TTITLE5=You Can't Stand Alone
TTITLE6=Mojo Mamma
TTITLE7=I Found The One
TTITLE8=Something Within Me
TTITLE9=I'm Sorry About That
TTITLE10=Love Is A Beautiful Thing
EXTD=
EXTT0=
EXTT1=
EXTT2=
EXTT3=
EXTT4=
EXTT5=
EXTT6=
EXTT7=
EXTT8=
EXTT9=
EXTT10=
PLAYORDER=
